<svg width="24" height="24" viewBox="0 0 24 24" fill="none" xmlns="http://www.w3.org/2000/svg">
	<path d="M13.06 10.94C13.5949 11.4732 14.0192 12.1068 14.3088 12.8043C14.5984 13.5019 14.7474 14.2497 14.7474 15.005C14.7474 15.7603 14.5984 16.5081 14.3088 17.2057C14.0192 17.9032 13.5949 18.5368 13.06 19.07C10.81 21.31 7.17 21.32 4.93 19.07C2.69 16.82 2.68 13.18 4.93 10.94" stroke="white" stroke-width="1.5" stroke-linecap="round" stroke-linejoin="round" />
	<path d="M10.59 13.41C8.24999 11.07 8.24999 7.27001 10.59 4.92001C12.93 2.57001 16.73 2.58001 19.08 4.92001C21.43 7.26001 21.42 11.06 19.08 13.41" stroke="white" stroke-width="1.5" stroke-linecap="round" stroke-linejoin="round" />
</svg>
