<svg xmlns="http://www.w3.org/2000/svg" viewBox="0 0 128 128" class="opacity-0 my-svg pointer-events-auto animated" data-v-6f4b6142="" style="opacity: 1;">
	<path fill="#8ed6fb" d="M117.29 98.1 66.24 127v-22.51L98 87l19.29 11.1zm3.5-3.16V34.55l-18.68 10.8v38.81l18.67 10.77zM10.71 98.1l51 28.88v-22.49L29.94 87zm-3.5-3.16V34.55l18.68 10.8v38.81zm2.19-64.3L61.76 1v21.76L28.21 41.21l-.27.15zm109.18 0L66.24 1v21.76L99.79 41.2l.27.15 18.54-10.71z" style="stroke-dashoffset: 0; stroke-dasharray: none; stroke-width: 2px; stroke: white; fill-opacity: 0;">
	</path>
	<path fill="#1c78c0" d="M61.76 99.37 30.37 82.1V47.92L61.76 66zm4.48 0 31.39-17.25v-34.2L66.24 66zM32.5 44 64 26.66 95.5 44 64 62.16 32.5 44z" style="stroke-dashoffset: 0; stroke-dasharray: none; stroke-width: 2px; stroke: white; fill-opacity: 0;">
	</path>
</svg>
